<svg width="24" height="24" viewBox="0 0 24 24" fill="none" xmlns="http://www.w3.org/2000/svg">
    <path fill-rule="evenodd" clip-rule="evenodd" d="M11.5 4C7.35786 4 4 7.35786 4 11.5C4 15.6421 7.35786 19 11.5 19H12.5C13.661 19 14.7604 18.7362 15.7414 18.2653L19.5 20L18.6106 15.8496C19.4854 14.6229 20 13.1215 20 11.5C20 7.35786 16.6421 4 12.5 4H11.5ZM11.2751 13.967C11.0917 14.1116 11 14.2893 11 14.5C11 14.7138 11.0917 14.8931 11.2751 15.0377C11.4623 15.1792 11.7049 15.25 12.0029 15.25C12.3009 15.25 12.5415 15.1792 12.7249 15.0377C12.9083 14.8931 13 14.7138 13 14.5C13 14.2893 12.9083 14.1116 12.7249 13.967C12.5415 13.8223 12.3009 13.75 12.0029 13.75C11.7049 13.75 11.4623 13.8223 11.2751 13.967ZM11.2539 12.9951H12.5771C12.5804 12.7412 12.6162 12.5264 12.6846 12.3506C12.7529 12.1715 12.8799 11.999 13.0654 11.833C13.2835 11.6344 13.4821 11.444 13.6611 11.2617C13.8402 11.0762 13.9834 10.8776 14.0908 10.666C14.1982 10.4512 14.252 10.2021 14.252 9.91895C14.252 9.50553 14.1624 9.1556 13.9834 8.86914C13.8076 8.58268 13.5521 8.36621 13.2168 8.21973C12.8848 8.07324 12.486 8 12.0205 8C11.6006 8 11.2197 8.07161 10.8779 8.21484C10.5394 8.35482 10.2692 8.57454 10.0674 8.87402C9.86556 9.17025 9.75977 9.55111 9.75 10.0166H11.2832C11.2897 9.82129 11.3271 9.66341 11.3955 9.54297C11.4639 9.42253 11.5534 9.33464 11.6641 9.2793C11.7747 9.2207 11.8936 9.19141 12.0205 9.19141C12.1735 9.19141 12.3005 9.22233 12.4014 9.28418C12.5055 9.34277 12.5837 9.43066 12.6357 9.54785C12.6911 9.66178 12.7188 9.80827 12.7188 9.9873C12.7188 10.137 12.6878 10.2754 12.626 10.4023C12.5641 10.5293 12.4762 10.653 12.3623 10.7734C12.2484 10.8906 12.1149 11.016 11.9619 11.1494C11.7861 11.3089 11.6462 11.4766 11.542 11.6523C11.4378 11.8249 11.363 12.0202 11.3174 12.2383C11.2751 12.4531 11.2539 12.7054 11.2539 12.9951Z" fill="#B3CDFF"/>
</svg>
